# xmcd
#
# Track frame offsets: 
#        150
#        20163
#        37490
#        63842
#        82063
#        100683
#        119882
#        130998
#        158879
#        174500
#        190430
#        205941
#        221601
#        239339
#        251719
#        269371
#
# Disc length: 3639 seconds
#
# Revision: 0
# Processed by: cddbd v1.5.2PL0 Copyright (c) Steve Scherf et al.
# Submitted via: ExactAudioCopyFreeDBPlugin 1.0
#
DISCID=fa0e3510
DTITLE=Roxie Watson - True Stories
DYEAR=2010
DGENRE=Country
TTITLE0=Back On Track
TTITLE1=Devil Stole My Baby
TTITLE2=Ever Was
TTITLE3=Oh Magnolia
TTITLE4=Built to Last
TTITLE5=Say Goodbye
TTITLE6=Tell Me Lies
TTITLE7=Poor Wayfaring Stranger
TTITLE8=You and Me and the Nueces
TTITLE9=I Heard The Bluebirds Sing
TTITLE10=Send In The Rodeo Clowns
TTITLE11=Time Will Tell
TTITLE12=Boots Like Emmy Lou's
TTITLE13=Down To The River
TTITLE14=These Friends of Mine
TTITLE15=Chatter
EXTD=
EXTT0=
EXTT1=
EXTT2=
EXTT3=
EXTT4=
EXTT5=
EXTT6=
EXTT7=
EXTT8=
EXTT9=
EXTT10=
EXTT11=
EXTT12=
EXTT13=
EXTT14=
EXTT15=
PLAYORDER=
